# xmcd
# Copyright (C) 1995-1998 Ti Kan
#
# Track frame offsets:
#       150
#       15164
#       30277
#       48054
#       61678
#       76616
#       91876
#       108973
#       122729
#       143763
#       160711
#
# Disc length: 2414 seconds
#
# Revision: 2
# Processed by: cddbd v1.5PL3 Copyright (c) Steve Scherf et al.
# Submitted via: CD-Transfer v1.0
#
DISCID=67096c0b
DTITLE=Hno - Everything Is Good
DYEAR=2004
DGENRE=
TTITLE0=15 Min Of Shame
TTITLE1=Everything Is Good
TTITLE2=Complain
TTITLE3=Close To You
TTITLE4=Snood
TTITLE5=Funny Aeroplane Song
TTITLE6=Not My Day
TTITLE7=Going Out
TTITLE8=Happy Birthday Jesus
TTITLE9=Tigre
TTITLE10=In Beautiful Grace
EXTD=
EXTT0=
EXTT1=
EXTT2=
EXTT3=
EXTT4=
EXTT5=
EXTT6=
EXTT7=
EXTT8=
EXTT9=
EXTT10=
PLAYORDER=
